inDegrees=yes
name=ik_S49_A09_T01
DataType=double
version=3
OpenSimVersion=4.3-2021-08-27-4bc7ad9
endheader
time	pelvis_tilt	pelvis_list	pelvis_rotation	pelvis_tx	pelvis_ty	pelvis_tz	hip_flexion_r	hip_adduction_r	hip_rotation_r	knee_angle_r	knee_angle_r_beta	ankle_angle_r	subtalar_angle_r	mtp_angle_r	hip_flexion_l	hip_adduction_l	hip_rotation_l	knee_angle_l	knee_angle_l_beta	ankle_angle_l	subtalar_angle_l	mtp_angle_l	lumbar_extension	lumbar_bending	lumbar_rotation	arm_flex_r	arm_add_r	arm_rot_r	elbow_flex_r	pro_sup_r	wrist_flex_r	wrist_dev_r	arm_flex_l	arm_add_l	arm_rot_l	elbow_flex_l	pro_sup_l	wrist_flex_l	wrist_dev_l
19.85999999999967	-10.96904726008564	-6.853846697111378	23.77044149944858	0	0.9399999999999999	0	43.5507689147336	-10.1116294519628	-10.09293250363407	54.89570229201046	0.9581107501901802	0	0	0	43.5507689147336	-10.1116294519628	-10.09293250363407	54.89570229201046	0.9581107501901802	0	0	0	-11.2963473464216	-3.336805828160479	4.682065536022978	72.22373720860546	-3.442582963339971	3.822956375440751	46.73269275481899	110.2874870183705	0	0	77.13568200662812	-10.64161135391284	22.36163654047061	34.90171337999666	108.0869439754939	0	0
19.87999999999967	-10.95782388057036	-6.801386800974448	23.95991098648097	0	0.9399999999999999	0	43.55125482196039	-10.11149877206253	-10.09286271910487	54.89572573027147	0.9581111592650058	0	0	0	43.55125482196039	-10.11149877206253	-10.09286271910487	54.89572573027147	0.9581111592650058	0	0	0	-11.26070684392	-3.304160673858363	4.730386226805397	72.05544197123145	-3.09424126967458	3.436894497742605	46.56476271656012	110.9073505464988	0	0	77.25678012955888	-10.50560365956095	22.44968267210856	34.88969648072664	108.7268313591207	0	0
19.89999999999966	-10.95382776235964	-6.77696868811909	24.08313294842804	0	0.9399999999999999	0	43.5519688538344	-10.11130695469041	-10.09276022833178	54.89576017643878	0.9581117604640399	0	0	0	43.5519688538344	-10.11130695469041	-10.09276022833178	54.89576017643878	0.9581117604640399	0	0	0	-11.25524696517978	-3.266835193146482	4.66686132050473	71.99710136549301	-2.602396303387189	3.360655004653508	46.04331291702556	111.9659113019868	0	0	77.44509737509564	-10.53206295838027	22.44052081429559	34.85433301537078	109.4944683922312	0	0
19.91999999999966	-10.93897463327335	-6.746323443169591	24.23841417799931	0	0.9399999999999999	0	43.55248325004106	-10.11116956638091	-10.09268666329776	54.89578510710326	0.9581121955862199	0	0	0	43.55248325004106	-10.11116956638091	-10.09268666329776	54.89578510710326	0.9581121955862199	0	0	0	-11.23648307809235	-3.23013423835246	4.611513297207839	71.9604526014591	-2.277652453495735	3.405659550358774	44.9326987040814	112.6130990687222	0	0	77.62840125964318	-10.51014878708703	22.49504434985554	34.82802088695295	110.1978203600987	0	0
19.93999999999966	-10.93116530692433	-6.740862223091837	24.38303125548709	0	0.9399999999999999	0	43.55289554590996	-10.11105946486498	-10.09262769747952	54.89580507810994	0.9581125441460413	0	0	0	43.55289554590996	-10.11105946486498	-10.09262769747952	54.89580507810994	0.9581125441460413	0	0	0	-11.23329375981914	-3.216142276871771	4.564405055998396	72.01241429596145	-2.032315776180611	3.376093574307544	44.39153154423707	112.7922830256902	0	0	78.16811101689257	-10.72266534953129	22.78183573890639	34.86334700693251	111.3285308386136	0	0
19.95999999999966	-10.92760952299631	-6.719359240481204	24.49048491032656	0	0.9399999999999999	0	43.55332506883951	-10.11094449633115	-10.09256616759954	54.89582582849268	0.9581129063085413	0	0	0	43.55332506883951	-10.11094449633115	-10.09256616759954	54.89582582849268	0.9581129063085413	0	0	0	-11.22565573201119	-3.189178330369068	4.531450192693581	72.00441166733829	-1.673994214809831	3.343452934840984	44.02495720094191	112.8117245344552	0	0	78.47350638865993	-10.77162113976786	22.78705522336635	34.86704056018236	112.1414161310638	0	0
19.97999999999966	-10.91838047976131	-6.71167353305092	24.57239659612778	0	0.9399999999999999	0	43.55371681513626	-10.11084001408245	-10.09251017413208	54.89584480446356	0.958113237501712	0	0	0	43.55371681513626	-10.11084001408245	-10.09251017413208	54.89584480446356	0.958113237501712	0	0	0	-11.21852129311568	-3.176649639768819	4.494839807349772	71.99448981674135	-1.409392245611762	3.171370165705637	43.67844624216819	112.7146693542492	0	0	78.82371797125107	-10.90195487541191	22.84171787484854	34.94731201887974	112.8940671483299	0	0
19.99999999999966	-10.92781708123137	-6.684388035718373	24.65276000366087	0	0.9399999999999999	0	43.55424875213446	-10.11069766073798	-10.09243396410799	54.89587047555856	0.9581136855468422	0	0	0	43.55424875213446	-10.11069766073798	-10.09243396410799	54.89587047555856	0.9581136855468422	0	0	0	-11.22229679338604	-3.135011560117019	4.446364735779621	72.20659819828943	-0.9451660744670574	2.951012443184951	43.04407761923692	113.0271325228843	0	0	79.17493492625746	-10.98294413384514	22.71417119014206	34.71557411129256	112.9044561428223	0	0
20.01999999999966	-10.9221212202839	-6.65153236986758	24.82796060830112	0	0.9399999999999999	0	43.55488737144555	-10.11052663658587	-10.09234241163491	54.89590124913534	0.9581142226470797	0	0	0	43.55488737144555	-10.11052663658587	-10.09234241163491	54.89590124913534	0.9581142226470797	0	0	0	-11.225556150253	-3.059313638248585	4.253336984611789	71.92800361949062	-0.05398516568770519	4.335856711668264	42.82895211440487	112.9436717612539	0	0	79.58394752188312	-11.18435728397867	22.49192250432388	34.83077430840363	113.9082274906989	0	0
20.03999999999966	-10.9201338058063	-6.636701315870167	24.86137964404496	0	0.9399999999999999	0	43.55525465450867	-10.11042918367734	-10.09229007272143	54.89591909128605	0.9581145340513553	0	0	0	43.55525465450867	-10.11042918367734	-10.09229007272143	54.89591909128605	0.9581145340513553	0	0	0	-11.22457634115742	-3.031345813779867	4.192888627662919	71.92072590739676	-0.05984237714453289	4.373206034094327	42.67929026842852	113.1838601136315	0	0	80.01075356852461	-11.40566887178806	22.23439681989239	34.62324756211864	113.9570982599479	0	0
20.05999999999966	-10.9103560262911	-6.618210671533741	25.06120470835682	0	0.9399999999999999	0	43.5559426045104	-10.1102452638582	-10.09219152989783	54.89595224573483	0.9581151127056481	0	0	0	43.5559426045104	-10.1102452638582	-10.09219152989783	54.89595224573483	0.9581151127056481	0	0	0	-11.23683510061485	-2.958610157974413	3.951900673990425	71.68646941550358	0.4191877653365502	6.709525211396557	42.68421503589744	111.8994353162845	0	0	80.47027296254005	-11.64611404134873	21.83614322397722	34.29746666547764	114.1168427854939	0	0
